<svg id="Layer_1" data-name="Layer 1" xmlns="http://www.w3.org/2000/svg" viewBox="0 0 347.91 178.47"><defs><style>.cls-1{fill:#122649;}</style></defs><path class="cls-1" d="M236,511.59h-17.6V447.64H236Z" transform="translate(-135.07 -334.51)"/><path class="cls-1" d="M257.86,491c-.12,2.92-.22,6.78.66,8.87s3.24,2,6.74,2c4.92,0,6.46-.85,6.51-6.59.12-13.55-29.36-10.23-31-31.12-1.56-20.14,13-17.93,24.87-17.93,14.54,0,23.37-1.34,21.85,19.57H270.31c0-4.42.35-7.3-.9-8.37s-3.47-1.19-5.4-1.16c-6.15.1-6,1.82-6,6.84,0,10.13,29.94,9.47,31,30.19.85,17.11-6,19.55-23.59,19.55-14.32,0-25.94,2.26-24.59-21.83Z" transform="translate(-135.07 -334.51)"/><polygon class="cls-1" points="218.73 113.13 214.74 150.09 203.27 113.07 201.72 113.07 190.34 113.07 188.71 113.07 177.24 150.09 173.25 113.13 156.4 113.13 165.3 177.08 183.89 177.08 195.99 139.6 208.09 177.08 226.67 177.08 235.58 113.13 218.73 113.13"/><path class="cls-1" d="M393.17,511.59H375.56V447.64h17.61Z" transform="translate(-135.07 -334.51)"/><path class="cls-1" d="M451.1,470.38c0-5.48-.12-13.09,7.54-13.09,7.9,0,7.66,6.85,7.66,13.09Zm31.66,10c.73-25.56,1-34.11-24.24-34.11-22.92,0-24.24,6.21-24.24,30.43s.21,36.2,24.24,36.2c7.78,0,14.94-.7,18.82-4.62s4.84-11.22,5.07-18.21H465.6c0,5.34-1.18,11.44-7.08,11.44-8.38,0-7.54-12.13-7.54-21.13Z" transform="translate(-135.07 -334.51)"/><path class="cls-1" d="M431.77,447.62h-5.66a6.88,6.88,0,0,0-5.41,2.71L416,457v-9.36h-16.8v63.95h17.6V478.45l.13-.69,6.48-10.53a5.55,5.55,0,0,1,4.4-2.94h4Z" transform="translate(-135.07 -334.51)"/><path class="cls-1" d="M206.15,459.84c-7.05-7.79-17.26-12-28-12.91l-.79-.05,19.72-27.56H176.36L154,452.16V419.32h-18.9v91.43H154V489.58c.71-16.25,11.33-22,11.33-22A25,25,0,0,1,186,464.5a17.4,17.4,0,0,1,8,5.57,17.7,17.7,0,0,1,3.93,11.08c0,4.78-1.74,9.93-5.75,12.94a15.54,15.54,0,0,1-11.35,3.07c-2.61-.33-6.3-2.15-6.5-6.58a6.54,6.54,0,0,1,6.45-6.7l2.64,0V469.73a20.23,20.23,0,0,0-15.26,3.75,21.09,21.09,0,0,0-8.45,15.57A20.67,20.67,0,0,0,166,505.77a19.26,19.26,0,0,0,6.75,4.44,25.77,25.77,0,0,0,8.94,1.89c7.41,0,15-1.79,20.75-6.44a30.27,30.27,0,0,0,11.24-21.8C214.3,475.31,212.1,466.41,206.15,459.84Z" transform="translate(-135.07 -334.51)"/><path class="cls-1" d="M324.86,364.37C317.55,364.62,309,362,309,362l-2.08,13.38-.28,1.21c-2.81,8.56-12.2,8.79-13.62,8.84l-.72-.05v-2.65l0-.68h.67c5.62,0,9.16-2.77,10.27-6.27l.78-3.63c2.58-17.12,2.86-19,2.88-19.08.82-3.76.33-6.74-1.47-8.86C301.56,339.71,294,340,292.63,340H274c-9-.22-12.73,10.88-13.28,12.12-.24.55-2.7,7.69-10.13,9.07-6.5,1.21-12.6-2.39-14.17-8.37a9.71,9.71,0,0,1,7-11.79,7.94,7.94,0,0,1,6.15.89,6.45,6.45,0,0,1,2.74,5.49c-.31,6.21-6.54,6.18-6.54,6.18l-.62-2.71a3.86,3.86,0,0,0,2.94-.86,3.19,3.19,0,0,0,1.1-2.72,3.32,3.32,0,0,0-1.4-2.59,4.62,4.62,0,0,0-3.43-.54,6.4,6.4,0,0,0-4.59,7.78,8.37,8.37,0,0,0,10.06,5.94,10.66,10.66,0,0,0,7.7-13.1,14,14,0,0,0-16.93-9.91c-7.86,1.86-13.55,8.89-13.29,19.12l.12,2.06c.27,1.59,2,21.66,25.11,21.83.34,0,3.61-.25,5.57,1.68a5.34,5.34,0,0,1,1.37,4.24c0,.57.25.68.33.73,1,.52,3.34-.37,5.45-1.73l.88-.42c1.05-.57,6.88-1.9,9.59,5.24a18.86,18.86,0,0,1,1.38,6.36l-.15,3.59.17,28.32c-.32,5-2.07,5.94-2.07,5.94-2,2.32-2.2,2.86-2.51,3.82a2.29,2.29,0,0,0,.75,2.58c.89.49,1.24.31,1.24.31h30.26V418l28.62,0,0,11.68a6.27,6.27,0,0,1-.75,2.46c-.89,1.31-1.19.7-2.6,3.51-.44,1.21-.49,1.93.22,2.75,1.34.47,1.57.33,1.57.33l1.58,0h27.14v-48.6C361.28,362.37,324.86,364.37,324.86,364.37Zm-53.24-2.62a2.56,2.56,0,1,1,2.56-2.56A2.56,2.56,0,0,1,271.62,361.75Z" transform="translate(-135.07 -334.51)"/></svg>